<svg xmlns="http://www.w3.org/2000/svg" width="114.348" height="84.757" viewBox="0 0 114.348 84.757">
    <g id="Youtube_1" data-name="Youtube 1" transform="translate(0.5 0.5)">
      <g id="_Group_" data-name="&lt;Group&gt;" transform="translate(0 0)">
        <g id="_Group_2" data-name="&lt;Group&gt;" transform="translate(44.386 19.661)">
          <path id="_Path_" data-name="&lt;Path&gt;" d="M9.5,7.5V51.738L43.907,29.619Z" transform="translate(-9.5 -7.5)" fill="none" stroke="#303c42" stroke-linecap="round" stroke-linejoin="round" stroke-width="1"/>
        </g>
        <path id="_Path_2" data-name="&lt;Path&gt;" d="M13.545,6.793l9.192-1.18A276.343,276.343,0,0,1,57.144,3.5h0A276.338,276.338,0,0,1,91.551,5.614l9.339,1.18a14.746,14.746,0,0,1,12.927,14.746V69.218A14.746,14.746,0,0,1,100.89,83.964l-9.339,1.18a276.336,276.336,0,0,1-34.407,2.114h0a276.339,276.339,0,0,1-34.407-2.114L13.4,83.964A14.746,14.746,0,0,1,.47,69.218V21.441A14.745,14.745,0,0,1,13.542,6.794Z" transform="translate(-0.47 -3.5)" fill="none" stroke="#303c42" stroke-linecap="round" stroke-linejoin="round" stroke-width="1"/>
      </g>
    </g>
  </svg>
  